<?xml version="1.0" encoding="utf-8"?>
<!-- Generator: Adobe Illustrator 25.4.0, SVG Export Plug-In . SVG Version: 6.00 Build 0)  -->
<svg version="1.1" id="Слой_1" xmlns="http://www.w3.org/2000/svg" xmlns:xlink="http://www.w3.org/1999/xlink" x="0px" y="0px"
	 viewBox="0 0 198.3 233.1" style="enable-background:new 0 0 198.3 233.1;" xml:space="preserve">
<style type="text/css">
	.st0{fill:#510098;}
</style>
<g id="Calque_2">
	<g id="Calque_1-2">
		<path class="st0" d="M90.2,179.9h38.4c8.4-1,14.9-8,15.3-16.4v-55.4c0-7.4-6-13.3-13.3-13.3c-7.4,0-13.3,6-13.3,13.3c0,0,0,0,0,0
			v35.2c0,5.5-4.5,10-10,10H89.9c-7.4,0-13.3,6-13.3,13.3c0,0.1,0,0.1,0,0.2C76.8,174.2,82.8,180,90.2,179.9z M107.5,53.4H69.1
			c-8.4,1-14.9,8-15.3,16.4v55.4c0,7.4,6,13.3,13.3,13.3s13.3-6,13.3-13.3V90.1c0-5.5,4.5-10,10-10h17.4c7.4,0,13.3-6,13.3-13.3
			c0-0.1,0-0.1,0-0.2C120.9,59.2,114.9,53.4,107.5,53.4z"/>
		<path class="st0" d="M114,26.6c31.2,0,56.6,25.4,56.6,56.6v108.9c-1.3,7.5-7.4,13.4-14.9,14.3H83.3c-31.3,0-56.6-25.4-56.6-56.6
			l0,0V44.2c0-9.7,7.8-17.5,17.5-17.5L114,26.6 M114,0H44.2C19.8,0,0,19.8,0,44.2v105.7c0,46,37.3,83.3,83.3,83.3H157
			c21.1-1.7,38-18.2,40.3-39.2V83.2C197.3,37.3,160,0,114,0C114,0,114,0,114,0z"/>
	</g>
</g>
</svg>
